<mxfile host="app.diagrams.net" modified="2022-05-16T09:43:07.945Z" agent="5.0 (Macintosh; Intel Mac OS X 10_15_7) AppleWebKit/537.36 (KHTML, like Gecko) Chrome/101.0.4951.64 Safari/537.36" etag="9rP8IuG4p1e24pPFVncS" version="18.0.5" type="github">
  <diagram id="kO2-0gb3cd28rpV2l8b9" name="Page-1">
    <mxGraphModel dx="946" dy="518" grid="1" gridSize="10" guides="1" tooltips="1" connect="1" arrows="1" fold="1" page="1" pageScale="1" pageWidth="827" pageHeight="1169" math="0" shadow="0">
      <root>
        <mxCell id="0" />
        <mxCell id="1" parent="0" />
        <mxCell id="NHk19tb2VVzMmrzfBw-_-10" value="" style="rounded=1;whiteSpace=wrap;html=1;shadow=0;labelBackgroundColor=#D4E1F5;labelBorderColor=default;fontFamily=Helvetica;fontSize=12;strokeColor=#36393d;fillColor=#eeeeee;" vertex="1" parent="1">
          <mxGeometry x="40" y="280" width="730" height="480" as="geometry" />
        </mxCell>
        <mxCell id="NHk19tb2VVzMmrzfBw-_-11" value="" style="shape=image;html=1;verticalAlign=top;verticalLabelPosition=bottom;labelBackgroundColor=none;imageAspect=0;aspect=fixed;image=https://cdn2.iconfinder.com/data/icons/boxicons-regular-vol-2/24/bx-git-repo-forked-128.png;shadow=0;labelBorderColor=none;fontFamily=Helvetica;fontSize=12;fontColor=none;strokeColor=default;fillColor=default;noLabel=1;" vertex="1" parent="1">
          <mxGeometry x="260" y="324.9" width="112" height="112" as="geometry" />
        </mxCell>
        <mxCell id="NHk19tb2VVzMmrzfBw-_-12" value="" style="points=[];aspect=fixed;html=1;align=center;shadow=0;dashed=0;image;image=img/lib/allied_telesis/computer_and_terminals/Personal_Computer.svg;labelBackgroundColor=#D4E1F5;labelBorderColor=default;fontFamily=Helvetica;fontSize=12;fontColor=#CCCCCC;strokeColor=default;fillColor=default;" vertex="1" parent="1">
          <mxGeometry x="70" y="338.79" width="62.14" height="84.21" as="geometry" />
        </mxCell>
        <mxCell id="NHk19tb2VVzMmrzfBw-_-13" value="" style="endArrow=classic;html=1;rounded=0;fontFamily=Helvetica;fontSize=12;fontColor=#CCCCCC;" edge="1" parent="1" source="NHk19tb2VVzMmrzfBw-_-12" target="NHk19tb2VVzMmrzfBw-_-11">
          <mxGeometry width="50" height="50" relative="1" as="geometry">
            <mxPoint x="160" y="380" as="sourcePoint" />
            <mxPoint x="440" y="460" as="targetPoint" />
          </mxGeometry>
        </mxCell>
        <mxCell id="NHk19tb2VVzMmrzfBw-_-20" value="commit to repo" style="edgeLabel;html=1;align=center;verticalAlign=middle;resizable=0;points=[];fontSize=12;fontFamily=Helvetica;fontColor=none;" vertex="1" connectable="0" parent="NHk19tb2VVzMmrzfBw-_-13">
          <mxGeometry x="-0.0999" y="-1" relative="1" as="geometry">
            <mxPoint as="offset" />
          </mxGeometry>
        </mxCell>
        <mxCell id="NHk19tb2VVzMmrzfBw-_-15" value="" style="dashed=0;outlineConnect=0;html=1;align=center;labelPosition=center;verticalLabelPosition=bottom;verticalAlign=top;shape=mxgraph.webicons.github;gradientColor=#DFDEDE;shadow=0;labelBackgroundColor=none;labelBorderColor=none;fontFamily=Helvetica;fontSize=12;fontColor=none;strokeColor=default;" vertex="1" parent="1">
          <mxGeometry x="470" y="329.69" width="102.4" height="102.4" as="geometry" />
        </mxCell>
        <mxCell id="NHk19tb2VVzMmrzfBw-_-16" value="" style="endArrow=classic;html=1;rounded=0;fontFamily=Helvetica;fontSize=12;fontColor=none;" edge="1" parent="1" source="NHk19tb2VVzMmrzfBw-_-11" target="NHk19tb2VVzMmrzfBw-_-15">
          <mxGeometry width="50" height="50" relative="1" as="geometry">
            <mxPoint x="390" y="510" as="sourcePoint" />
            <mxPoint x="440" y="460" as="targetPoint" />
          </mxGeometry>
        </mxCell>
        <mxCell id="NHk19tb2VVzMmrzfBw-_-22" value="" style="edgeStyle=orthogonalEdgeStyle;rounded=0;orthogonalLoop=1;jettySize=auto;html=1;fontFamily=Helvetica;fontSize=12;fontColor=none;" edge="1" parent="1" source="NHk19tb2VVzMmrzfBw-_-17" target="NHk19tb2VVzMmrzfBw-_-21">
          <mxGeometry relative="1" as="geometry" />
        </mxCell>
        <mxCell id="NHk19tb2VVzMmrzfBw-_-17" value="" style="sketch=0;html=1;aspect=fixed;strokeColor=none;shadow=0;align=center;verticalAlign=top;fillColor=#3B8DF1;shape=mxgraph.gcp2.play_start;labelBackgroundColor=none;labelBorderColor=none;fontFamily=Helvetica;fontSize=12;fontColor=none;" vertex="1" parent="1">
          <mxGeometry x="491.2" y="465" width="60" height="60" as="geometry" />
        </mxCell>
        <mxCell id="NHk19tb2VVzMmrzfBw-_-18" value="" style="endArrow=classic;html=1;rounded=0;fontFamily=Helvetica;fontSize=12;fontColor=none;entryX=0.513;entryY=0.017;entryDx=0;entryDy=0;entryPerimeter=0;" edge="1" parent="1" source="NHk19tb2VVzMmrzfBw-_-15" target="NHk19tb2VVzMmrzfBw-_-17">
          <mxGeometry width="50" height="50" relative="1" as="geometry">
            <mxPoint x="382" y="390.8972709551657" as="sourcePoint" />
            <mxPoint x="480" y="390.89249512670574" as="targetPoint" />
          </mxGeometry>
        </mxCell>
        <mxCell id="NHk19tb2VVzMmrzfBw-_-19" value="Github Actions" style="edgeLabel;html=1;align=center;verticalAlign=middle;resizable=0;points=[];fontSize=12;fontFamily=Helvetica;fontColor=none;" vertex="1" connectable="0" parent="NHk19tb2VVzMmrzfBw-_-18">
          <mxGeometry x="-0.0621" relative="1" as="geometry">
            <mxPoint as="offset" />
          </mxGeometry>
        </mxCell>
        <mxCell id="NHk19tb2VVzMmrzfBw-_-26" value="" style="edgeStyle=orthogonalEdgeStyle;rounded=0;orthogonalLoop=1;jettySize=auto;html=1;fontFamily=Helvetica;fontSize=12;fontColor=none;" edge="1" parent="1" source="NHk19tb2VVzMmrzfBw-_-21" target="NHk19tb2VVzMmrzfBw-_-24">
          <mxGeometry relative="1" as="geometry" />
        </mxCell>
        <mxCell id="NHk19tb2VVzMmrzfBw-_-27" value="Pass" style="edgeLabel;html=1;align=center;verticalAlign=middle;resizable=0;points=[];fontSize=12;fontFamily=Helvetica;fontColor=none;" vertex="1" connectable="0" parent="NHk19tb2VVzMmrzfBw-_-26">
          <mxGeometry y="1" relative="1" as="geometry">
            <mxPoint y="1" as="offset" />
          </mxGeometry>
        </mxCell>
        <mxCell id="NHk19tb2VVzMmrzfBw-_-24" value="&lt;span style=&quot;&quot;&gt;Benchmark Test&amp;nbsp;&lt;/span&gt;" style="rhombus;whiteSpace=wrap;html=1;shadow=0;labelBackgroundColor=none;labelBorderColor=none;fontFamily=Helvetica;fontSize=12;fontColor=#333333;strokeColor=#666666;fillColor=#f5f5f5;" vertex="1" parent="1">
          <mxGeometry x="430" y="555" width="90" height="90" as="geometry" />
        </mxCell>
        <mxCell id="NHk19tb2VVzMmrzfBw-_-31" value="" style="edgeStyle=orthogonalEdgeStyle;rounded=0;orthogonalLoop=1;jettySize=auto;html=1;fontFamily=Helvetica;fontSize=12;fontColor=none;" edge="1" parent="1" source="NHk19tb2VVzMmrzfBw-_-21" target="NHk19tb2VVzMmrzfBw-_-28">
          <mxGeometry relative="1" as="geometry" />
        </mxCell>
        <mxCell id="NHk19tb2VVzMmrzfBw-_-34" value="Fail" style="edgeLabel;html=1;align=center;verticalAlign=middle;resizable=0;points=[];fontSize=12;fontFamily=Helvetica;fontColor=none;" vertex="1" connectable="0" parent="NHk19tb2VVzMmrzfBw-_-31">
          <mxGeometry x="-0.4828" y="2" relative="1" as="geometry">
            <mxPoint y="1" as="offset" />
          </mxGeometry>
        </mxCell>
        <mxCell id="NHk19tb2VVzMmrzfBw-_-28" value="FAIL" style="ellipse;shape=doubleEllipse;whiteSpace=wrap;html=1;shadow=0;labelBackgroundColor=none;labelBorderColor=none;fontFamily=Helvetica;fontSize=12;strokeColor=#b85450;fillColor=#f8cecc;" vertex="1" parent="1">
          <mxGeometry x="609.4" y="680" width="100" height="60" as="geometry" />
        </mxCell>
        <mxCell id="NHk19tb2VVzMmrzfBw-_-32" value="" style="edgeStyle=segmentEdgeStyle;endArrow=classic;html=1;rounded=0;fontFamily=Helvetica;fontSize=12;fontColor=none;exitX=0.5;exitY=1;exitDx=0;exitDy=0;entryX=0;entryY=0.5;entryDx=0;entryDy=0;" edge="1" parent="1" source="NHk19tb2VVzMmrzfBw-_-24" target="NHk19tb2VVzMmrzfBw-_-28">
          <mxGeometry width="50" height="50" relative="1" as="geometry">
            <mxPoint x="622.4" y="660" as="sourcePoint" />
            <mxPoint x="572.4" y="710" as="targetPoint" />
            <Array as="points">
              <mxPoint x="475" y="710" />
            </Array>
          </mxGeometry>
        </mxCell>
        <mxCell id="NHk19tb2VVzMmrzfBw-_-33" value="Fail" style="edgeLabel;html=1;align=center;verticalAlign=middle;resizable=0;points=[];fontSize=12;fontFamily=Helvetica;fontColor=none;" vertex="1" connectable="0" parent="NHk19tb2VVzMmrzfBw-_-32">
          <mxGeometry x="-0.6154" y="2" relative="1" as="geometry">
            <mxPoint y="1" as="offset" />
          </mxGeometry>
        </mxCell>
        <mxCell id="NHk19tb2VVzMmrzfBw-_-38" value="" style="strokeColor=#dddddd;shadow=1;strokeWidth=1;rounded=1;absoluteArcSize=1;arcSize=2;labelBackgroundColor=none;labelBorderColor=none;fontFamily=Helvetica;fontSize=12;fontColor=none;fillColor=default;html=1;" vertex="1" parent="1">
          <mxGeometry x="230" y="570" width="120" height="60" as="geometry" />
        </mxCell>
        <mxCell id="NHk19tb2VVzMmrzfBw-_-39" value="Cloud&#xa;Storage" style="editableCssRules=.*;fontColor=#999999;shape=image;verticalLabelPosition=middle;labelBackgroundColor=#ffffff;verticalAlign=middle;labelPosition=right;align=left;spacingLeft=20;part=1;points=[];imageAspect=0;image=data:image/svg+xml,PHN2ZyB4bWxucz0iaHR0cDovL3d3dy53My5vcmcvMjAwMC9zdmciIHhtbG5zOnY9Imh0dHBzOi8vdmVjdGEuaW8vbmFubyIgd2lkdGg9IjIwIiBoZWlnaHQ9IjE2IiB2aWV3Qm94PSIwIDAgMjAgMTYiPiYjeGE7CTxzdHlsZSB0eXBlPSJ0ZXh0L2NzcyI+JiN4YTsJLnN0MHtmaWxsOiM0Mjg1ZjQ7fSYjeGE7CS5zdDF7ZmlsbDojNjY5ZGY2O30mI3hhOwkuc3Qye2ZpbGw6I2FlY2JmYTt9JiN4YTsJLnN0M3tmaWxsOiNmZmY7fSYjeGE7CTwvc3R5bGU+JiN4YTsJPHBhdGggY2xhc3M9InN0MiIgZD0iTTAgMGgyMHY3SDB6Ii8+JiN4YTsJPHBhdGggY2xhc3M9InN0MSIgZD0iTTE4IDBoMnY3aC0yeiIvPiYjeGE7CTxwYXRoIGNsYXNzPSJzdDAiIGQ9Ik0xOCA3bDItN2gtMnoiLz4mI3hhOwk8cGF0aCBjbGFzcz0ic3QxIiBkPSJNMCAwaDJ2N0gweiIvPiYjeGE7CTxnIGNsYXNzPSJzdDMiPiYjeGE7CQk8cGF0aCBkPSJNNCAzaDZ2MUg0eiIvPiYjeGE7CQk8cmVjdCB4PSIxMyIgeT0iMiIgd2lkdGg9IjMiIGhlaWdodD0iMyIgcng9IjEuNSIvPiYjeGE7CTwvZz4mI3hhOwk8cGF0aCBjbGFzcz0ic3QyIiBkPSJNMCA5aDIwdjdIMHoiLz4mI3hhOwk8cGF0aCBjbGFzcz0ic3QxIiBkPSJNMTggOWgydjdoLTJ6Ii8+JiN4YTsJPHBhdGggY2xhc3M9InN0MCIgZD0iTTE4IDE2bDItN2gtMnoiLz4mI3hhOwk8cGF0aCBjbGFzcz0ic3QxIiBkPSJNMCA5aDJ2N0gweiIvPiYjeGE7CTxnIGNsYXNzPSJzdDMiPiYjeGE7CQk8cGF0aCBkPSJNNCAxMmg2djFINHoiLz4mI3hhOwkJPHJlY3QgeD0iMTMiIHk9IjExIiB3aWR0aD0iMyIgaGVpZ2h0PSIzIiByeD0iMS41Ii8+JiN4YTsJPC9nPiYjeGE7PC9zdmc+;shadow=0;labelBorderColor=none;fontFamily=Helvetica;fontSize=12;strokeColor=default;fillColor=default;html=1;" vertex="1" parent="NHk19tb2VVzMmrzfBw-_-38">
          <mxGeometry width="30" height="24" relative="1" as="geometry">
            <mxPoint x="15" y="18" as="offset" />
          </mxGeometry>
        </mxCell>
        <mxCell id="NHk19tb2VVzMmrzfBw-_-21" value="&lt;span style=&quot;&quot;&gt;Unit Test&amp;nbsp;&lt;/span&gt;" style="rhombus;whiteSpace=wrap;html=1;shadow=0;labelBackgroundColor=none;labelBorderColor=none;fontFamily=Helvetica;fontSize=12;fontColor=#333333;strokeColor=#666666;fillColor=#f5f5f5;" vertex="1" parent="1">
          <mxGeometry x="620" y="560" width="78.8" height="80" as="geometry" />
        </mxCell>
        <mxCell id="NHk19tb2VVzMmrzfBw-_-43" value="" style="edgeStyle=orthogonalEdgeStyle;rounded=0;orthogonalLoop=1;jettySize=auto;html=1;fontFamily=Helvetica;fontSize=12;fontColor=none;" edge="1" parent="1">
          <mxGeometry relative="1" as="geometry">
            <mxPoint x="430" y="600" as="sourcePoint" />
            <mxPoint x="350" y="599.5" as="targetPoint" />
            <Array as="points">
              <mxPoint x="390" y="600" />
            </Array>
          </mxGeometry>
        </mxCell>
        <mxCell id="NHk19tb2VVzMmrzfBw-_-44" value="Result" style="edgeLabel;html=1;align=center;verticalAlign=middle;resizable=0;points=[];fontSize=12;fontFamily=Helvetica;fontColor=none;" vertex="1" connectable="0" parent="NHk19tb2VVzMmrzfBw-_-43">
          <mxGeometry y="1" relative="1" as="geometry">
            <mxPoint y="1" as="offset" />
          </mxGeometry>
        </mxCell>
      </root>
    </mxGraphModel>
  </diagram>
</mxfile>
